<?xml version="1.0" encoding="utf-8"?>
<!-- Generator: Adobe Illustrator 26.3.1, SVG Export Plug-In . SVG Version: 6.00 Build 0)  -->
<svg version="1.1" id="레이어_1" xmlns="http://www.w3.org/2000/svg" xmlns:xlink="http://www.w3.org/1999/xlink" x="0px"
	 y="0px" viewBox="0 0 200 200" style="enable-background:new 0 0 200 200;" xml:space="preserve">
<style type="text/css">
	.st0{fill:#141E8C;}
	.st1{fill:#FFFFFF;}
</style>
<g>
	<path class="st0" d="M200,200c-30.5-13.8-64.4-21.4-100-21.4c-35.6,0-69.5,7.7-100,21.4V0h200V200z"/>
	<g>
		<path class="st1" d="M23.7,61c-9.4,0-10.2,9.5-10.2,9.5H9V56.4h35c0,0,0.3,10.9-10.1,22.5c0,0-9.8,11.4-10.1,16.5h5.7
			c8.1,0,9-9.5,9-9.5h4.7V100H7.4c0,0-1.3-10.7,11.1-23.7c0,0,7.6-8.5,9.4-15.3L23.7,61z"/>
		<path class="st1" d="M112.8,100v-4.6h-1.1c-1.9,0-3.5-1.6-3.5-3.5V64.6c0-1.9,1.6-3.5,3.5-3.5h1.1v-4.6H89.6v4.6h1.1
			c2,0,3.5,1.6,3.5,3.5v27.3c0,1.9-1.6,3.5-3.5,3.5h-1.1v4.6H112.8z"/>
		<path class="st1" d="M84.8,100V85.9h-4.7c0,0-0.9,9.5-9,9.5h-4.7V80.5h1.7c2,0,3.5,1.6,3.5,3.5v1.8h4.6V70.6h-4.6v1.8
			c0,2-1.6,3.5-3.5,3.5h-1.7V61h4.7c8.1,0,9,9.5,9,9.5h4.7V56.4H47.9v4.6H49c1.9,0,3.5,1.6,3.5,3.5v27.3c0,1.9-1.6,3.5-3.5,3.5h-1.1
			v4.6L84.8,100z"/>
		<path class="st1" d="M137.2,61c9.4,0,10.1,9.5,10.1,9.5h4.5V56.4h-33.5c0,0-5.3,6.9,8.5,22.5c0,0,9.8,11.4,10.1,16.5h-5.6
			c-8.1,0-9-9.5-9-9.5h-4.7V100h33.7c0,0,6.1-6.6-9-23.7c0,0-8-8.2-9.4-15.3L137.2,61z"/>
		<path class="st1" d="M176.3,61c9.4,0,10.1,9.5,10.1,9.5h4.5V56.4h-33.4c0,0-5.3,6.9,8.5,22.5c0,0,9.8,11.4,10.1,16.5h-5.6
			c-8.1,0-9-9.5-9-9.5h-4.7V100h33.7c0,0,6.1-6.6-9-23.7c0,0-8-8.2-9.4-15.3L176.3,61z"/>
	</g>
</g>
</svg>
